<svg width="24" height="25" viewBox="0 0 24 25" className="text-green-700" fill="none" xmlns="http://www.w3.org/2000/svg">
<path d="M17.0002 2.15869H7.00021C4.23879 2.15869 2.00021 4.39727 2.00021 7.15869V17.1587C2.00021 19.9201 4.23879 22.1587 7.00021 22.1587H17.0002C19.7616 22.1587 22.0002 19.9201 22.0002 17.1587V7.15869C22.0002 4.39727 19.7616 2.15869 17.0002 2.15869Z" className="text-green-700" stroke="currentColor" stroke-width="1.5" stroke-linecap="round" stroke-linejoin="round"/>
<path d="M16 11.5285C16.1234 12.3608 15.9813 13.2107 15.5938 13.9575C15.2063 14.7043 14.5932 15.3099 13.8416 15.6882C13.0901 16.0664 12.2385 16.1981 11.4078 16.0644C10.5771 15.9308 9.80977 15.5386 9.21485 14.9437C8.61993 14.3487 8.22774 13.5814 8.09408 12.7507C7.96042 11.9201 8.09208 11.0684 8.47034 10.3169C8.8486 9.56536 9.4542 8.95225 10.201 8.56475C10.9478 8.17725 11.7978 8.03509 12.63 8.1585C13.4789 8.28439 14.2649 8.67997 14.8717 9.28681C15.4785 9.89365 15.8741 10.6796 16 11.5285Z" className="text-green-700" stroke="currentColor" stroke-width="1.5" stroke-linecap="round" stroke-linejoin="round"/>
<path d="M17.4998 6.65869H17.5104" className="text-green-700" stroke="currentColor" stroke-width="1.5" stroke-linecap="round" stroke-linejoin="round"/>
</svg>
